<svg width="144" height="184" viewBox="0 0 144 184" fill="none" xmlns="http://www.w3.org/2000/svg">
<path d="M2 180C3.10457 180 4 180.895 4 182C4 183.105 3.10457 184 2 184C0.895431 184 0 183.105 0 182C0 180.895 0.895431 180 2 180ZM22 180C23.1046 180 24 180.895 24 182C24 183.105 23.1046 184 22 184C20.8954 184 20 183.105 20 182C20 180.895 20.8954 180 22 180ZM42 180C43.1046 180 44 180.895 44 182C44 183.105 43.1046 184 42 184C40.8954 184 40 183.105 40 182C40 180.895 40.8954 180 42 180ZM62 180C63.1046 180 64 180.895 64 182C64 183.105 63.1046 184 62 184C60.8954 184 60 183.105 60 182C60 180.895 60.8954 180 62 180ZM82 180C83.1046 180 84 180.895 84 182C84 183.105 83.1046 184 82 184C80.8954 184 80 183.105 80 182C80 180.895 80.8954 180 82 180ZM102 180C103.105 180 104 180.895 104 182C104 183.105 103.105 184 102 184C100.895 184 100 183.105 100 182C100 180.895 100.895 180 102 180ZM122 180C123.105 180 124 180.895 124 182C124 183.105 123.105 184 122 184C120.895 184 120 183.105 120 182C120 180.895 120.895 180 122 180ZM142 180C143.105 180 144 180.895 144 182C144 183.105 143.105 184 142 184C140.895 184 140 183.105 140 182C140 180.895 140.895 180 142 180ZM2 160C3.10457 160 4 160.895 4 162C4 163.105 3.10457 164 2 164C0.895431 164 0 163.105 0 162C0 160.895 0.895431 160 2 160ZM22 160C23.1046 160 24 160.895 24 162C24 163.105 23.1046 164 22 164C20.8954 164 20 163.105 20 162C20 160.895 20.8954 160 22 160ZM42 160C43.1046 160 44 160.895 44 162C44 163.105 43.1046 164 42 164C40.8954 164 40 163.105 40 162C40 160.895 40.8954 160 42 160ZM62 160C63.1046 160 64 160.895 64 162C64 163.105 63.1046 164 62 164C60.8954 164 60 163.105 60 162C60 160.895 60.8954 160 62 160ZM82 160C83.1046 160 84 160.895 84 162C84 163.105 83.1046 164 82 164C80.8954 164 80 163.105 80 162C80 160.895 80.8954 160 82 160ZM102 160C103.105 160 104 160.895 104 162C104 163.105 103.105 164 102 164C100.895 164 100 163.105 100 162C100 160.895 100.895 160 102 160ZM122 160C123.105 160 124 160.895 124 162C124 163.105 123.105 164 122 164C120.895 164 120 163.105 120 162C120 160.895 120.895 160 122 160ZM142 160C143.105 160 144 160.895 144 162C144 163.105 143.105 164 142 164C140.895 164 140 163.105 140 162C140 160.895 140.895 160 142 160ZM2 140C3.10457 140 4 140.895 4 142C4 143.105 3.10457 144 2 144C0.895431 144 0 143.105 0 142C0 140.895 0.895431 140 2 140ZM22 140C23.1046 140 24 140.895 24 142C24 143.105 23.1046 144 22 144C20.8954 144 20 143.105 20 142C20 140.895 20.8954 140 22 140ZM42 140C43.1046 140 44 140.895 44 142C44 143.105 43.1046 144 42 144C40.8954 144 40 143.105 40 142C40 140.895 40.8954 140 42 140ZM62 140C63.1046 140 64 140.895 64 142C64 143.105 63.1046 144 62 144C60.8954 144 60 143.105 60 142C60 140.895 60.8954 140 62 140ZM82 140C83.1046 140 84 140.895 84 142C84 143.105 83.1046 144 82 144C80.8954 144 80 143.105 80 142C80 140.895 80.8954 140 82 140ZM102 140C103.105 140 104 140.895 104 142C104 143.105 103.105 144 102 144C100.895 144 100 143.105 100 142C100 140.895 100.895 140 102 140ZM122 140C123.105 140 124 140.895 124 142C124 143.105 123.105 144 122 144C120.895 144 120 143.105 120 142C120 140.895 120.895 140 122 140ZM142 140C143.105 140 144 140.895 144 142C144 143.105 143.105 144 142 144C140.895 144 140 143.105 140 142C140 140.895 140.895 140 142 140ZM2 120C3.10457 120 4 120.895 4 122C4 123.105 3.10457 124 2 124C0.895431 124 0 123.105 0 122C0 120.895 0.895431 120 2 120ZM22 120C23.1046 120 24 120.895 24 122C24 123.105 23.1046 124 22 124C20.8954 124 20 123.105 20 122C20 120.895 20.8954 120 22 120ZM42 120C43.1046 120 44 120.895 44 122C44 123.105 43.1046 124 42 124C40.8954 124 40 123.105 40 122C40 120.895 40.8954 120 42 120ZM62 120C63.1046 120 64 120.895 64 122C64 123.105 63.1046 124 62 124C60.8954 124 60 123.105 60 122C60 120.895 60.8954 120 62 120ZM82 120C83.1046 120 84 120.895 84 122C84 123.105 83.1046 124 82 124C80.8954 124 80 123.105 80 122C80 120.895 80.8954 120 82 120ZM102 120C103.105 120 104 120.895 104 122C104 123.105 103.105 124 102 124C100.895 124 100 123.105 100 122C100 120.895 100.895 120 102 120ZM122 120C123.105 120 124 120.895 124 122C124 123.105 123.105 124 122 124C120.895 124 120 123.105 120 122C120 120.895 120.895 120 122 120ZM142 120C143.105 120 144 120.895 144 122C144 123.105 143.105 124 142 124C140.895 124 140 123.105 140 122C140 120.895 140.895 120 142 120ZM2 100C3.10457 100 4 100.895 4 102C4 103.105 3.10457 104 2 104C0.895431 104 0 103.105 0 102C0 100.895 0.895431 100 2 100ZM22 100C23.1046 100 24 100.895 24 102C24 103.105 23.1046 104 22 104C20.8954 104 20 103.105 20 102C20 100.895 20.8954 100 22 100ZM42 100C43.1046 100 44 100.895 44 102C44 103.105 43.1046 104 42 104C40.8954 104 40 103.105 40 102C40 100.895 40.8954 100 42 100ZM62 100C63.1046 100 64 100.895 64 102C64 103.105 63.1046 104 62 104C60.8954 104 60 103.105 60 102C60 100.895 60.8954 100 62 100ZM82 100C83.1046 100 84 100.895 84 102C84 103.105 83.1046 104 82 104C80.8954 104 80 103.105 80 102C80 100.895 80.8954 100 82 100ZM102 100C103.105 100 104 100.895 104 102C104 103.105 103.105 104 102 104C100.895 104 100 103.105 100 102C100 100.895 100.895 100 102 100ZM122 100C123.105 100 124 100.895 124 102C124 103.105 123.105 104 122 104C120.895 104 120 103.105 120 102C120 100.895 120.895 100 122 100ZM142 100C143.105 100 144 100.895 144 102C144 103.105 143.105 104 142 104C140.895 104 140 103.105 140 102C140 100.895 140.895 100 142 100ZM2 80C3.10457 80 4 80.8954 4 82C4 83.1046 3.10457 84 2 84C0.895431 84 0 83.1046 0 82C0 80.8954 0.895431 80 2 80ZM22 80C23.1046 80 24 80.8954 24 82C24 83.1046 23.1046 84 22 84C20.8954 84 20 83.1046 20 82C20 80.8954 20.8954 80 22 80ZM42 80C43.1046 80 44 80.8954 44 82C44 83.1046 43.1046 84 42 84C40.8954 84 40 83.1046 40 82C40 80.8954 40.8954 80 42 80ZM62 80C63.1046 80 64 80.8954 64 82C64 83.1046 63.1046 84 62 84C60.8954 84 60 83.1046 60 82C60 80.8954 60.8954 80 62 80ZM82 80C83.1046 80 84 80.8954 84 82C84 83.1046 83.1046 84 82 84C80.8954 84 80 83.1046 80 82C80 80.8954 80.8954 80 82 80ZM102 80C103.105 80 104 80.8954 104 82C104 83.1046 103.105 84 102 84C100.895 84 100 83.1046 100 82C100 80.8954 100.895 80 102 80ZM122 80C123.105 80 124 80.8954 124 82C124 83.1046 123.105 84 122 84C120.895 84 120 83.1046 120 82C120 80.8954 120.895 80 122 80ZM142 80C143.105 80 144 80.8954 144 82C144 83.1046 143.105 84 142 84C140.895 84 140 83.1046 140 82C140 80.8954 140.895 80 142 80ZM2 60C3.10457 60 4 60.8954 4 62C4 63.1046 3.10457 64 2 64C0.895431 64 0 63.1046 0 62C0 60.8954 0.895431 60 2 60ZM22 60C23.1046 60 24 60.8954 24 62C24 63.1046 23.1046 64 22 64C20.8954 64 20 63.1046 20 62C20 60.8954 20.8954 60 22 60ZM42 60C43.1046 60 44 60.8954 44 62C44 63.1046 43.1046 64 42 64C40.8954 64 40 63.1046 40 62C40 60.8954 40.8954 60 42 60ZM62 60C63.1046 60 64 60.8954 64 62C64 63.1046 63.1046 64 62 64C60.8954 64 60 63.1046 60 62C60 60.8954 60.8954 60 62 60ZM82 60C83.1046 60 84 60.8954 84 62C84 63.1046 83.1046 64 82 64C80.8954 64 80 63.1046 80 62C80 60.8954 80.8954 60 82 60ZM102 60C103.105 60 104 60.8954 104 62C104 63.1046 103.105 64 102 64C100.895 64 100 63.1046 100 62C100 60.8954 100.895 60 102 60ZM122 60C123.105 60 124 60.8954 124 62C124 63.1046 123.105 64 122 64C120.895 64 120 63.1046 120 62C120 60.8954 120.895 60 122 60ZM142 60C143.105 60 144 60.8954 144 62C144 63.1046 143.105 64 142 64C140.895 64 140 63.1046 140 62C140 60.8954 140.895 60 142 60ZM2 40C3.10457 40 4 40.8954 4 42C4 43.1046 3.10457 44 2 44C0.895431 44 0 43.1046 0 42C0 40.8954 0.895431 40 2 40ZM22 40C23.1046 40 24 40.8954 24 42C24 43.1046 23.1046 44 22 44C20.8954 44 20 43.1046 20 42C20 40.8954 20.8954 40 22 40ZM42 40C43.1046 40 44 40.8954 44 42C44 43.1046 43.1046 44 42 44C40.8954 44 40 43.1046 40 42C40 40.8954 40.8954 40 42 40ZM62 40C63.1046 40 64 40.8954 64 42C64 43.1046 63.1046 44 62 44C60.8954 44 60 43.1046 60 42C60 40.8954 60.8954 40 62 40ZM82 40C83.1046 40 84 40.8954 84 42C84 43.1046 83.1046 44 82 44C80.8954 44 80 43.1046 80 42C80 40.8954 80.8954 40 82 40ZM102 40C103.105 40 104 40.8954 104 42C104 43.1046 103.105 44 102 44C100.895 44 100 43.1046 100 42C100 40.8954 100.895 40 102 40ZM122 40C123.105 40 124 40.8954 124 42C124 43.1046 123.105 44 122 44C120.895 44 120 43.1046 120 42C120 40.8954 120.895 40 122 40ZM142 40C143.105 40 144 40.8954 144 42C144 43.1046 143.105 44 142 44C140.895 44 140 43.1046 140 42C140 40.8954 140.895 40 142 40ZM2 20C3.10457 20 4 20.8954 4 22C4 23.1046 3.10457 24 2 24C0.895431 24 0 23.1046 0 22C0 20.8954 0.895431 20 2 20ZM22 20C23.1046 20 24 20.8954 24 22C24 23.1046 23.1046 24 22 24C20.8954 24 20 23.1046 20 22C20 20.8954 20.8954 20 22 20ZM42 20C43.1046 20 44 20.8954 44 22C44 23.1046 43.1046 24 42 24C40.8954 24 40 23.1046 40 22C40 20.8954 40.8954 20 42 20ZM62 20C63.1046 20 64 20.8954 64 22C64 23.1046 63.1046 24 62 24C60.8954 24 60 23.1046 60 22C60 20.8954 60.8954 20 62 20ZM82 20C83.1046 20 84 20.8954 84 22C84 23.1046 83.1046 24 82 24C80.8954 24 80 23.1046 80 22C80 20.8954 80.8954 20 82 20ZM102 20C103.105 20 104 20.8954 104 22C104 23.1046 103.105 24 102 24C100.895 24 100 23.1046 100 22C100 20.8954 100.895 20 102 20ZM122 20C123.105 20 124 20.8954 124 22C124 23.1046 123.105 24 122 24C120.895 24 120 23.1046 120 22C120 20.8954 120.895 20 122 20ZM142 20C143.105 20 144 20.8954 144 22C144 23.1046 143.105 24 142 24C140.895 24 140 23.1046 140 22C140 20.8954 140.895 20 142 20ZM2 0C3.10457 0 4 0.895431 4 2C4 3.10457 3.10457 4 2 4C0.895431 4 0 3.10457 0 2C0 0.895431 0.895431 0 2 0ZM22 0C23.1046 0 24 0.895431 24 2C24 3.10457 23.1046 4 22 4C20.8954 4 20 3.10457 20 2C20 0.895431 20.8954 0 22 0ZM42 0C43.1046 0 44 0.895431 44 2C44 3.10457 43.1046 4 42 4C40.8954 4 40 3.10457 40 2C40 0.895431 40.8954 0 42 0ZM62 0C63.1046 0 64 0.895431 64 2C64 3.10457 63.1046 4 62 4C60.8954 4 60 3.10457 60 2C60 0.895431 60.8954 0 62 0ZM82 0C83.1046 0 84 0.895431 84 2C84 3.10457 83.1046 4 82 4C80.8954 4 80 3.10457 80 2C80 0.895431 80.8954 0 82 0ZM102 0C103.105 0 104 0.895431 104 2C104 3.10457 103.105 4 102 4C100.895 4 100 3.10457 100 2C100 0.895431 100.895 0 102 0ZM122 0C123.105 0 124 0.895431 124 2C124 3.10457 123.105 4 122 4C120.895 4 120 3.10457 120 2C120 0.895431 120.895 0 122 0ZM142 0C143.105 0 144 0.895431 144 2C144 3.10457 143.105 4 142 4C140.895 4 140 3.10457 140 2C140 0.895431 140.895 0 142 0Z" fill="white"/>
</svg>
