<svg width="284" height="364" viewBox="0 0 284 364" fill="none" xmlns="http://www.w3.org/2000/svg">
<path d="M2 360C3.10457 360 4 360.895 4 362C4 363.105 3.10457 364 2 364C0.895431 364 0 363.105 0 362C0 360.895 0.895431 360 2 360ZM22 360C23.1046 360 24 360.895 24 362C24 363.105 23.1046 364 22 364C20.8954 364 20 363.105 20 362C20 360.895 20.8954 360 22 360ZM42 360C43.1046 360 44 360.895 44 362C44 363.105 43.1046 364 42 364C40.8954 364 40 363.105 40 362C40 360.895 40.8954 360 42 360ZM62 360C63.1046 360 64 360.895 64 362C64 363.105 63.1046 364 62 364C60.8954 364 60 363.105 60 362C60 360.895 60.8954 360 62 360ZM82 360C83.1046 360 84 360.895 84 362C84 363.105 83.1046 364 82 364C80.8954 364 80 363.105 80 362C80 360.895 80.8954 360 82 360ZM102 360C103.105 360 104 360.895 104 362C104 363.105 103.105 364 102 364C100.895 364 100 363.105 100 362C100 360.895 100.895 360 102 360ZM122 360C123.105 360 124 360.895 124 362C124 363.105 123.105 364 122 364C120.895 364 120 363.105 120 362C120 360.895 120.895 360 122 360ZM142 360C143.105 360 144 360.895 144 362C144 363.105 143.105 364 142 364C140.895 364 140 363.105 140 362C140 360.895 140.895 360 142 360ZM162 360C163.105 360 164 360.895 164 362C164 363.105 163.105 364 162 364C160.895 364 160 363.105 160 362C160 360.895 160.895 360 162 360ZM182 360C183.105 360 184 360.895 184 362C184 363.105 183.105 364 182 364C180.895 364 180 363.105 180 362C180 360.895 180.895 360 182 360ZM202 360C203.105 360 204 360.895 204 362C204 363.105 203.105 364 202 364C200.895 364 200 363.105 200 362C200 360.895 200.895 360 202 360ZM222 360C223.105 360 224 360.895 224 362C224 363.105 223.105 364 222 364C220.895 364 220 363.105 220 362C220 360.895 220.895 360 222 360ZM242 360C243.105 360 244 360.895 244 362C244 363.105 243.105 364 242 364C240.895 364 240 363.105 240 362C240 360.895 240.895 360 242 360ZM262 360C263.105 360 264 360.895 264 362C264 363.105 263.105 364 262 364C260.895 364 260 363.105 260 362C260 360.895 260.895 360 262 360ZM282 360C283.105 360 284 360.895 284 362C284 363.105 283.105 364 282 364C280.895 364 280 363.105 280 362C280 360.895 280.895 360 282 360ZM2 340C3.10457 340 4 340.895 4 342C4 343.105 3.10457 344 2 344C0.895431 344 0 343.105 0 342C0 340.895 0.895431 340 2 340ZM22 340C23.1046 340 24 340.895 24 342C24 343.105 23.1046 344 22 344C20.8954 344 20 343.105 20 342C20 340.895 20.8954 340 22 340ZM42 340C43.1046 340 44 340.895 44 342C44 343.105 43.1046 344 42 344C40.8954 344 40 343.105 40 342C40 340.895 40.8954 340 42 340ZM62 340C63.1046 340 64 340.895 64 342C64 343.105 63.1046 344 62 344C60.8954 344 60 343.105 60 342C60 340.895 60.8954 340 62 340ZM82 340C83.1046 340 84 340.895 84 342C84 343.105 83.1046 344 82 344C80.8954 344 80 343.105 80 342C80 340.895 80.8954 340 82 340ZM102 340C103.105 340 104 340.895 104 342C104 343.105 103.105 344 102 344C100.895 344 100 343.105 100 342C100 340.895 100.895 340 102 340ZM122 340C123.105 340 124 340.895 124 342C124 343.105 123.105 344 122 344C120.895 344 120 343.105 120 342C120 340.895 120.895 340 122 340ZM142 340C143.105 340 144 340.895 144 342C144 343.105 143.105 344 142 344C140.895 344 140 343.105 140 342C140 340.895 140.895 340 142 340ZM162 340C163.105 340 164 340.895 164 342C164 343.105 163.105 344 162 344C160.895 344 160 343.105 160 342C160 340.895 160.895 340 162 340ZM182 340C183.105 340 184 340.895 184 342C184 343.105 183.105 344 182 344C180.895 344 180 343.105 180 342C180 340.895 180.895 340 182 340ZM202 340C203.105 340 204 340.895 204 342C204 343.105 203.105 344 202 344C200.895 344 200 343.105 200 342C200 340.895 200.895 340 202 340ZM222 340C223.105 340 224 340.895 224 342C224 343.105 223.105 344 222 344C220.895 344 220 343.105 220 342C220 340.895 220.895 340 222 340ZM242 340C243.105 340 244 340.895 244 342C244 343.105 243.105 344 242 344C240.895 344 240 343.105 240 342C240 340.895 240.895 340 242 340ZM262 340C263.105 340 264 340.895 264 342C264 343.105 263.105 344 262 344C260.895 344 260 343.105 260 342C260 340.895 260.895 340 262 340ZM282 340C283.105 340 284 340.895 284 342C284 343.105 283.105 344 282 344C280.895 344 280 343.105 280 342C280 340.895 280.895 340 282 340ZM2 320C3.10457 320 4 320.895 4 322C4 323.105 3.10457 324 2 324C0.895431 324 0 323.105 0 322C0 320.895 0.895431 320 2 320ZM22 320C23.1046 320 24 320.895 24 322C24 323.105 23.1046 324 22 324C20.8954 324 20 323.105 20 322C20 320.895 20.8954 320 22 320ZM42 320C43.1046 320 44 320.895 44 322C44 323.105 43.1046 324 42 324C40.8954 324 40 323.105 40 322C40 320.895 40.8954 320 42 320ZM62 320C63.1046 320 64 320.895 64 322C64 323.105 63.1046 324 62 324C60.8954 324 60 323.105 60 322C60 320.895 60.8954 320 62 320ZM82 320C83.1046 320 84 320.895 84 322C84 323.105 83.1046 324 82 324C80.8954 324 80 323.105 80 322C80 320.895 80.8954 320 82 320ZM102 320C103.105 320 104 320.895 104 322C104 323.105 103.105 324 102 324C100.895 324 100 323.105 100 322C100 320.895 100.895 320 102 320ZM122 320C123.105 320 124 320.895 124 322C124 323.105 123.105 324 122 324C120.895 324 120 323.105 120 322C120 320.895 120.895 320 122 320ZM142 320C143.105 320 144 320.895 144 322C144 323.105 143.105 324 142 324C140.895 324 140 323.105 140 322C140 320.895 140.895 320 142 320ZM162 320C163.105 320 164 320.895 164 322C164 323.105 163.105 324 162 324C160.895 324 160 323.105 160 322C160 320.895 160.895 320 162 320ZM182 320C183.105 320 184 320.895 184 322C184 323.105 183.105 324 182 324C180.895 324 180 323.105 180 322C180 320.895 180.895 320 182 320ZM202 320C203.105 320 204 320.895 204 322C204 323.105 203.105 324 202 324C200.895 324 200 323.105 200 322C200 320.895 200.895 320 202 320ZM222 320C223.105 320 224 320.895 224 322C224 323.105 223.105 324 222 324C220.895 324 220 323.105 220 322C220 320.895 220.895 320 222 320ZM242 320C243.105 320 244 320.895 244 322C244 323.105 243.105 324 242 324C240.895 324 240 323.105 240 322C240 320.895 240.895 320 242 320ZM262 320C263.105 320 264 320.895 264 322C264 323.105 263.105 324 262 324C260.895 324 260 323.105 260 322C260 320.895 260.895 320 262 320ZM282 320C283.105 320 284 320.895 284 322C284 323.105 283.105 324 282 324C280.895 324 280 323.105 280 322C280 320.895 280.895 320 282 320ZM2 300C3.10457 300 4 300.895 4 302C4 303.105 3.10457 304 2 304C0.895431 304 0 303.105 0 302C0 300.895 0.895431 300 2 300ZM22 300C23.1046 300 24 300.895 24 302C24 303.105 23.1046 304 22 304C20.8954 304 20 303.105 20 302C20 300.895 20.8954 300 22 300ZM42 300C43.1046 300 44 300.895 44 302C44 303.105 43.1046 304 42 304C40.8954 304 40 303.105 40 302C40 300.895 40.8954 300 42 300ZM62 300C63.1046 300 64 300.895 64 302C64 303.105 63.1046 304 62 304C60.8954 304 60 303.105 60 302C60 300.895 60.8954 300 62 300ZM82 300C83.1046 300 84 300.895 84 302C84 303.105 83.1046 304 82 304C80.8954 304 80 303.105 80 302C80 300.895 80.8954 300 82 300ZM102 300C103.105 300 104 300.895 104 302C104 303.105 103.105 304 102 304C100.895 304 100 303.105 100 302C100 300.895 100.895 300 102 300ZM122 300C123.105 300 124 300.895 124 302C124 303.105 123.105 304 122 304C120.895 304 120 303.105 120 302C120 300.895 120.895 300 122 300ZM142 300C143.105 300 144 300.895 144 302C144 303.105 143.105 304 142 304C140.895 304 140 303.105 140 302C140 300.895 140.895 300 142 300ZM162 300C163.105 300 164 300.895 164 302C164 303.105 163.105 304 162 304C160.895 304 160 303.105 160 302C160 300.895 160.895 300 162 300ZM182 300C183.105 300 184 300.895 184 302C184 303.105 183.105 304 182 304C180.895 304 180 303.105 180 302C180 300.895 180.895 300 182 300ZM202 300C203.105 300 204 300.895 204 302C204 303.105 203.105 304 202 304C200.895 304 200 303.105 200 302C200 300.895 200.895 300 202 300ZM222 300C223.105 300 224 300.895 224 302C224 303.105 223.105 304 222 304C220.895 304 220 303.105 220 302C220 300.895 220.895 300 222 300ZM242 300C243.105 300 244 300.895 244 302C244 303.105 243.105 304 242 304C240.895 304 240 303.105 240 302C240 300.895 240.895 300 242 300ZM262 300C263.105 300 264 300.895 264 302C264 303.105 263.105 304 262 304C260.895 304 260 303.105 260 302C260 300.895 260.895 300 262 300ZM282 300C283.105 300 284 300.895 284 302C284 303.105 283.105 304 282 304C280.895 304 280 303.105 280 302C280 300.895 280.895 300 282 300ZM2 280C3.10457 280 4 280.895 4 282C4 283.105 3.10457 284 2 284C0.895431 284 0 283.105 0 282C0 280.895 0.895431 280 2 280ZM22 280C23.1046 280 24 280.895 24 282C24 283.105 23.1046 284 22 284C20.8954 284 20 283.105 20 282C20 280.895 20.8954 280 22 280ZM42 280C43.1046 280 44 280.895 44 282C44 283.105 43.1046 284 42 284C40.8954 284 40 283.105 40 282C40 280.895 40.8954 280 42 280ZM62 280C63.1046 280 64 280.895 64 282C64 283.105 63.1046 284 62 284C60.8954 284 60 283.105 60 282C60 280.895 60.8954 280 62 280ZM82 280C83.1046 280 84 280.895 84 282C84 283.105 83.1046 284 82 284C80.8954 284 80 283.105 80 282C80 280.895 80.8954 280 82 280ZM102 280C103.105 280 104 280.895 104 282C104 283.105 103.105 284 102 284C100.895 284 100 283.105 100 282C100 280.895 100.895 280 102 280ZM122 280C123.105 280 124 280.895 124 282C124 283.105 123.105 284 122 284C120.895 284 120 283.105 120 282C120 280.895 120.895 280 122 280ZM142 280C143.105 280 144 280.895 144 282C144 283.105 143.105 284 142 284C140.895 284 140 283.105 140 282C140 280.895 140.895 280 142 280ZM162 280C163.105 280 164 280.895 164 282C164 283.105 163.105 284 162 284C160.895 284 160 283.105 160 282C160 280.895 160.895 280 162 280ZM182 280C183.105 280 184 280.895 184 282C184 283.105 183.105 284 182 284C180.895 284 180 283.105 180 282C180 280.895 180.895 280 182 280ZM202 280C203.105 280 204 280.895 204 282C204 283.105 203.105 284 202 284C200.895 284 200 283.105 200 282C200 280.895 200.895 280 202 280ZM222 280C223.105 280 224 280.895 224 282C224 283.105 223.105 284 222 284C220.895 284 220 283.105 220 282C220 280.895 220.895 280 222 280ZM242 280C243.105 280 244 280.895 244 282C244 283.105 243.105 284 242 284C240.895 284 240 283.105 240 282C240 280.895 240.895 280 242 280ZM262 280C263.105 280 264 280.895 264 282C264 283.105 263.105 284 262 284C260.895 284 260 283.105 260 282C260 280.895 260.895 280 262 280ZM282 280C283.105 280 284 280.895 284 282C284 283.105 283.105 284 282 284C280.895 284 280 283.105 280 282C280 280.895 280.895 280 282 280ZM2 260C3.10457 260 4 260.895 4 262C4 263.105 3.10457 264 2 264C0.895431 264 0 263.105 0 262C0 260.895 0.895431 260 2 260ZM22 260C23.1046 260 24 260.895 24 262C24 263.105 23.1046 264 22 264C20.8954 264 20 263.105 20 262C20 260.895 20.8954 260 22 260ZM42 260C43.1046 260 44 260.895 44 262C44 263.105 43.1046 264 42 264C40.8954 264 40 263.105 40 262C40 260.895 40.8954 260 42 260ZM62 260C63.1046 260 64 260.895 64 262C64 263.105 63.1046 264 62 264C60.8954 264 60 263.105 60 262C60 260.895 60.8954 260 62 260ZM82 260C83.1046 260 84 260.895 84 262C84 263.105 83.1046 264 82 264C80.8954 264 80 263.105 80 262C80 260.895 80.8954 260 82 260ZM102 260C103.105 260 104 260.895 104 262C104 263.105 103.105 264 102 264C100.895 264 100 263.105 100 262C100 260.895 100.895 260 102 260ZM122 260C123.105 260 124 260.895 124 262C124 263.105 123.105 264 122 264C120.895 264 120 263.105 120 262C120 260.895 120.895 260 122 260ZM142 260C143.105 260 144 260.895 144 262C144 263.105 143.105 264 142 264C140.895 264 140 263.105 140 262C140 260.895 140.895 260 142 260ZM162 260C163.105 260 164 260.895 164 262C164 263.105 163.105 264 162 264C160.895 264 160 263.105 160 262C160 260.895 160.895 260 162 260ZM182 260C183.105 260 184 260.895 184 262C184 263.105 183.105 264 182 264C180.895 264 180 263.105 180 262C180 260.895 180.895 260 182 260ZM202 260C203.105 260 204 260.895 204 262C204 263.105 203.105 264 202 264C200.895 264 200 263.105 200 262C200 260.895 200.895 260 202 260ZM222 260C223.105 260 224 260.895 224 262C224 263.105 223.105 264 222 264C220.895 264 220 263.105 220 262C220 260.895 220.895 260 222 260ZM242 260C243.105 260 244 260.895 244 262C244 263.105 243.105 264 242 264C240.895 264 240 263.105 240 262C240 260.895 240.895 260 242 260ZM262 260C263.105 260 264 260.895 264 262C264 263.105 263.105 264 262 264C260.895 264 260 263.105 260 262C260 260.895 260.895 260 262 260ZM282 260C283.105 260 284 260.895 284 262C284 263.105 283.105 264 282 264C280.895 264 280 263.105 280 262C280 260.895 280.895 260 282 260ZM2 240C3.10457 240 4 240.895 4 242C4 243.105 3.10457 244 2 244C0.895431 244 0 243.105 0 242C0 240.895 0.895431 240 2 240ZM22 240C23.1046 240 24 240.895 24 242C24 243.105 23.1046 244 22 244C20.8954 244 20 243.105 20 242C20 240.895 20.8954 240 22 240ZM42 240C43.1046 240 44 240.895 44 242C44 243.105 43.1046 244 42 244C40.8954 244 40 243.105 40 242C40 240.895 40.8954 240 42 240ZM62 240C63.1046 240 64 240.895 64 242C64 243.105 63.1046 244 62 244C60.8954 244 60 243.105 60 242C60 240.895 60.8954 240 62 240ZM82 240C83.1046 240 84 240.895 84 242C84 243.105 83.1046 244 82 244C80.8954 244 80 243.105 80 242C80 240.895 80.8954 240 82 240ZM102 240C103.105 240 104 240.895 104 242C104 243.105 103.105 244 102 244C100.895 244 100 243.105 100 242C100 240.895 100.895 240 102 240ZM122 240C123.105 240 124 240.895 124 242C124 243.105 123.105 244 122 244C120.895 244 120 243.105 120 242C120 240.895 120.895 240 122 240ZM142 240C143.105 240 144 240.895 144 242C144 243.105 143.105 244 142 244C140.895 244 140 243.105 140 242C140 240.895 140.895 240 142 240ZM162 240C163.105 240 164 240.895 164 242C164 243.105 163.105 244 162 244C160.895 244 160 243.105 160 242C160 240.895 160.895 240 162 240ZM182 240C183.105 240 184 240.895 184 242C184 243.105 183.105 244 182 244C180.895 244 180 243.105 180 242C180 240.895 180.895 240 182 240ZM202 240C203.105 240 204 240.895 204 242C204 243.105 203.105 244 202 244C200.895 244 200 243.105 200 242C200 240.895 200.895 240 202 240ZM222 240C223.105 240 224 240.895 224 242C224 243.105 223.105 244 222 244C220.895 244 220 243.105 220 242C220 240.895 220.895 240 222 240ZM242 240C243.105 240 244 240.895 244 242C244 243.105 243.105 244 242 244C240.895 244 240 243.105 240 242C240 240.895 240.895 240 242 240ZM262 240C263.105 240 264 240.895 264 242C264 243.105 263.105 244 262 244C260.895 244 260 243.105 260 242C260 240.895 260.895 240 262 240ZM282 240C283.105 240 284 240.895 284 242C284 243.105 283.105 244 282 244C280.895 244 280 243.105 280 242C280 240.895 280.895 240 282 240ZM2 220C3.10457 220 4 220.895 4 222C4 223.105 3.10457 224 2 224C0.895431 224 0 223.105 0 222C0 220.895 0.895431 220 2 220ZM22 220C23.1046 220 24 220.895 24 222C24 223.105 23.1046 224 22 224C20.8954 224 20 223.105 20 222C20 220.895 20.8954 220 22 220ZM42 220C43.1046 220 44 220.895 44 222C44 223.105 43.1046 224 42 224C40.8954 224 40 223.105 40 222C40 220.895 40.8954 220 42 220ZM62 220C63.1046 220 64 220.895 64 222C64 223.105 63.1046 224 62 224C60.8954 224 60 223.105 60 222C60 220.895 60.8954 220 62 220ZM82 220C83.1046 220 84 220.895 84 222C84 223.105 83.1046 224 82 224C80.8954 224 80 223.105 80 222C80 220.895 80.8954 220 82 220ZM102 220C103.105 220 104 220.895 104 222C104 223.105 103.105 224 102 224C100.895 224 100 223.105 100 222C100 220.895 100.895 220 102 220ZM122 220C123.105 220 124 220.895 124 222C124 223.105 123.105 224 122 224C120.895 224 120 223.105 120 222C120 220.895 120.895 220 122 220ZM142 220C143.105 220 144 220.895 144 222C144 223.105 143.105 224 142 224C140.895 224 140 223.105 140 222C140 220.895 140.895 220 142 220ZM162 220C163.105 220 164 220.895 164 222C164 223.105 163.105 224 162 224C160.895 224 160 223.105 160 222C160 220.895 160.895 220 162 220ZM182 220C183.105 220 184 220.895 184 222C184 223.105 183.105 224 182 224C180.895 224 180 223.105 180 222C180 220.895 180.895 220 182 220ZM202 220C203.105 220 204 220.895 204 222C204 223.105 203.105 224 202 224C200.895 224 200 223.105 200 222C200 220.895 200.895 220 202 220ZM222 220C223.105 220 224 220.895 224 222C224 223.105 223.105 224 222 224C220.895 224 220 223.105 220 222C220 220.895 220.895 220 222 220ZM242 220C243.105 220 244 220.895 244 222C244 223.105 243.105 224 242 224C240.895 224 240 223.105 240 222C240 220.895 240.895 220 242 220ZM262 220C263.105 220 264 220.895 264 222C264 223.105 263.105 224 262 224C260.895 224 260 223.105 260 222C260 220.895 260.895 220 262 220ZM282 220C283.105 220 284 220.895 284 222C284 223.105 283.105 224 282 224C280.895 224 280 223.105 280 222C280 220.895 280.895 220 282 220ZM2 200C3.10457 200 4 200.895 4 202C4 203.105 3.10457 204 2 204C0.895431 204 0 203.105 0 202C0 200.895 0.895431 200 2 200ZM22 200C23.1046 200 24 200.895 24 202C24 203.105 23.1046 204 22 204C20.8954 204 20 203.105 20 202C20 200.895 20.8954 200 22 200ZM42 200C43.1046 200 44 200.895 44 202C44 203.105 43.1046 204 42 204C40.8954 204 40 203.105 40 202C40 200.895 40.8954 200 42 200ZM62 200C63.1046 200 64 200.895 64 202C64 203.105 63.1046 204 62 204C60.8954 204 60 203.105 60 202C60 200.895 60.8954 200 62 200ZM82 200C83.1046 200 84 200.895 84 202C84 203.105 83.1046 204 82 204C80.8954 204 80 203.105 80 202C80 200.895 80.8954 200 82 200ZM102 200C103.105 200 104 200.895 104 202C104 203.105 103.105 204 102 204C100.895 204 100 203.105 100 202C100 200.895 100.895 200 102 200ZM122 200C123.105 200 124 200.895 124 202C124 203.105 123.105 204 122 204C120.895 204 120 203.105 120 202C120 200.895 120.895 200 122 200ZM142 200C143.105 200 144 200.895 144 202C144 203.105 143.105 204 142 204C140.895 204 140 203.105 140 202C140 200.895 140.895 200 142 200ZM162 200C163.105 200 164 200.895 164 202C164 203.105 163.105 204 162 204C160.895 204 160 203.105 160 202C160 200.895 160.895 200 162 200ZM182 200C183.105 200 184 200.895 184 202C184 203.105 183.105 204 182 204C180.895 204 180 203.105 180 202C180 200.895 180.895 200 182 200ZM202 200C203.105 200 204 200.895 204 202C204 203.105 203.105 204 202 204C200.895 204 200 203.105 200 202C200 200.895 200.895 200 202 200ZM222 200C223.105 200 224 200.895 224 202C224 203.105 223.105 204 222 204C220.895 204 220 203.105 220 202C220 200.895 220.895 200 222 200ZM242 200C243.105 200 244 200.895 244 202C244 203.105 243.105 204 242 204C240.895 204 240 203.105 240 202C240 200.895 240.895 200 242 200ZM262 200C263.105 200 264 200.895 264 202C264 203.105 263.105 204 262 204C260.895 204 260 203.105 260 202C260 200.895 260.895 200 262 200ZM282 200C283.105 200 284 200.895 284 202C284 203.105 283.105 204 282 204C280.895 204 280 203.105 280 202C280 200.895 280.895 200 282 200ZM2 180C3.10457 180 4 180.895 4 182C4 183.105 3.10457 184 2 184C0.895431 184 0 183.105 0 182C0 180.895 0.895431 180 2 180ZM22 180C23.1046 180 24 180.895 24 182C24 183.105 23.1046 184 22 184C20.8954 184 20 183.105 20 182C20 180.895 20.8954 180 22 180ZM42 180C43.1046 180 44 180.895 44 182C44 183.105 43.1046 184 42 184C40.8954 184 40 183.105 40 182C40 180.895 40.8954 180 42 180ZM62 180C63.1046 180 64 180.895 64 182C64 183.105 63.1046 184 62 184C60.8954 184 60 183.105 60 182C60 180.895 60.8954 180 62 180ZM82 180C83.1046 180 84 180.895 84 182C84 183.105 83.1046 184 82 184C80.8954 184 80 183.105 80 182C80 180.895 80.8954 180 82 180ZM102 180C103.105 180 104 180.895 104 182C104 183.105 103.105 184 102 184C100.895 184 100 183.105 100 182C100 180.895 100.895 180 102 180ZM122 180C123.105 180 124 180.895 124 182C124 183.105 123.105 184 122 184C120.895 184 120 183.105 120 182C120 180.895 120.895 180 122 180ZM142 180C143.105 180 144 180.895 144 182C144 183.105 143.105 184 142 184C140.895 184 140 183.105 140 182C140 180.895 140.895 180 142 180ZM162 180C163.105 180 164 180.895 164 182C164 183.105 163.105 184 162 184C160.895 184 160 183.105 160 182C160 180.895 160.895 180 162 180ZM182 180C183.105 180 184 180.895 184 182C184 183.105 183.105 184 182 184C180.895 184 180 183.105 180 182C180 180.895 180.895 180 182 180ZM202 180C203.105 180 204 180.895 204 182C204 183.105 203.105 184 202 184C200.895 184 200 183.105 200 182C200 180.895 200.895 180 202 180ZM222 180C223.105 180 224 180.895 224 182C224 183.105 223.105 184 222 184C220.895 184 220 183.105 220 182C220 180.895 220.895 180 222 180ZM242 180C243.105 180 244 180.895 244 182C244 183.105 243.105 184 242 184C240.895 184 240 183.105 240 182C240 180.895 240.895 180 242 180ZM262 180C263.105 180 264 180.895 264 182C264 183.105 263.105 184 262 184C260.895 184 260 183.105 260 182C260 180.895 260.895 180 262 180ZM282 180C283.105 180 284 180.895 284 182C284 183.105 283.105 184 282 184C280.895 184 280 183.105 280 182C280 180.895 280.895 180 282 180ZM2 160C3.10457 160 4 160.895 4 162C4 163.105 3.10457 164 2 164C0.895431 164 0 163.105 0 162C0 160.895 0.895431 160 2 160ZM22 160C23.1046 160 24 160.895 24 162C24 163.105 23.1046 164 22 164C20.8954 164 20 163.105 20 162C20 160.895 20.8954 160 22 160ZM42 160C43.1046 160 44 160.895 44 162C44 163.105 43.1046 164 42 164C40.8954 164 40 163.105 40 162C40 160.895 40.8954 160 42 160ZM62 160C63.1046 160 64 160.895 64 162C64 163.105 63.1046 164 62 164C60.8954 164 60 163.105 60 162C60 160.895 60.8954 160 62 160ZM82 160C83.1046 160 84 160.895 84 162C84 163.105 83.1046 164 82 164C80.8954 164 80 163.105 80 162C80 160.895 80.8954 160 82 160ZM102 160C103.105 160 104 160.895 104 162C104 163.105 103.105 164 102 164C100.895 164 100 163.105 100 162C100 160.895 100.895 160 102 160ZM122 160C123.105 160 124 160.895 124 162C124 163.105 123.105 164 122 164C120.895 164 120 163.105 120 162C120 160.895 120.895 160 122 160ZM142 160C143.105 160 144 160.895 144 162C144 163.105 143.105 164 142 164C140.895 164 140 163.105 140 162C140 160.895 140.895 160 142 160ZM162 160C163.105 160 164 160.895 164 162C164 163.105 163.105 164 162 164C160.895 164 160 163.105 160 162C160 160.895 160.895 160 162 160ZM182 160C183.105 160 184 160.895 184 162C184 163.105 183.105 164 182 164C180.895 164 180 163.105 180 162C180 160.895 180.895 160 182 160ZM202 160C203.105 160 204 160.895 204 162C204 163.105 203.105 164 202 164C200.895 164 200 163.105 200 162C200 160.895 200.895 160 202 160ZM222 160C223.105 160 224 160.895 224 162C224 163.105 223.105 164 222 164C220.895 164 220 163.105 220 162C220 160.895 220.895 160 222 160ZM242 160C243.105 160 244 160.895 244 162C244 163.105 243.105 164 242 164C240.895 164 240 163.105 240 162C240 160.895 240.895 160 242 160ZM262 160C263.105 160 264 160.895 264 162C264 163.105 263.105 164 262 164C260.895 164 260 163.105 260 162C260 160.895 260.895 160 262 160ZM282 160C283.105 160 284 160.895 284 162C284 163.105 283.105 164 282 164C280.895 164 280 163.105 280 162C280 160.895 280.895 160 282 160ZM2 140C3.10457 140 4 140.895 4 142C4 143.105 3.10457 144 2 144C0.895431 144 0 143.105 0 142C0 140.895 0.895431 140 2 140ZM22 140C23.1046 140 24 140.895 24 142C24 143.105 23.1046 144 22 144C20.8954 144 20 143.105 20 142C20 140.895 20.8954 140 22 140ZM42 140C43.1046 140 44 140.895 44 142C44 143.105 43.1046 144 42 144C40.8954 144 40 143.105 40 142C40 140.895 40.8954 140 42 140ZM62 140C63.1046 140 64 140.895 64 142C64 143.105 63.1046 144 62 144C60.8954 144 60 143.105 60 142C60 140.895 60.8954 140 62 140ZM82 140C83.1046 140 84 140.895 84 142C84 143.105 83.1046 144 82 144C80.8954 144 80 143.105 80 142C80 140.895 80.8954 140 82 140ZM102 140C103.105 140 104 140.895 104 142C104 143.105 103.105 144 102 144C100.895 144 100 143.105 100 142C100 140.895 100.895 140 102 140ZM122 140C123.105 140 124 140.895 124 142C124 143.105 123.105 144 122 144C120.895 144 120 143.105 120 142C120 140.895 120.895 140 122 140ZM142 140C143.105 140 144 140.895 144 142C144 143.105 143.105 144 142 144C140.895 144 140 143.105 140 142C140 140.895 140.895 140 142 140ZM162 140C163.105 140 164 140.895 164 142C164 143.105 163.105 144 162 144C160.895 144 160 143.105 160 142C160 140.895 160.895 140 162 140ZM182 140C183.105 140 184 140.895 184 142C184 143.105 183.105 144 182 144C180.895 144 180 143.105 180 142C180 140.895 180.895 140 182 140ZM202 140C203.105 140 204 140.895 204 142C204 143.105 203.105 144 202 144C200.895 144 200 143.105 200 142C200 140.895 200.895 140 202 140ZM222 140C223.105 140 224 140.895 224 142C224 143.105 223.105 144 222 144C220.895 144 220 143.105 220 142C220 140.895 220.895 140 222 140ZM242 140C243.105 140 244 140.895 244 142C244 143.105 243.105 144 242 144C240.895 144 240 143.105 240 142C240 140.895 240.895 140 242 140ZM262 140C263.105 140 264 140.895 264 142C264 143.105 263.105 144 262 144C260.895 144 260 143.105 260 142C260 140.895 260.895 140 262 140ZM282 140C283.105 140 284 140.895 284 142C284 143.105 283.105 144 282 144C280.895 144 280 143.105 280 142C280 140.895 280.895 140 282 140ZM2 120C3.10457 120 4 120.895 4 122C4 123.105 3.10457 124 2 124C0.895431 124 0 123.105 0 122C0 120.895 0.895431 120 2 120ZM22 120C23.1046 120 24 120.895 24 122C24 123.105 23.1046 124 22 124C20.8954 124 20 123.105 20 122C20 120.895 20.8954 120 22 120ZM42 120C43.1046 120 44 120.895 44 122C44 123.105 43.1046 124 42 124C40.8954 124 40 123.105 40 122C40 120.895 40.8954 120 42 120ZM62 120C63.1046 120 64 120.895 64 122C64 123.105 63.1046 124 62 124C60.8954 124 60 123.105 60 122C60 120.895 60.8954 120 62 120ZM82 120C83.1046 120 84 120.895 84 122C84 123.105 83.1046 124 82 124C80.8954 124 80 123.105 80 122C80 120.895 80.8954 120 82 120ZM102 120C103.105 120 104 120.895 104 122C104 123.105 103.105 124 102 124C100.895 124 100 123.105 100 122C100 120.895 100.895 120 102 120ZM122 120C123.105 120 124 120.895 124 122C124 123.105 123.105 124 122 124C120.895 124 120 123.105 120 122C120 120.895 120.895 120 122 120ZM142 120C143.105 120 144 120.895 144 122C144 123.105 143.105 124 142 124C140.895 124 140 123.105 140 122C140 120.895 140.895 120 142 120ZM162 120C163.105 120 164 120.895 164 122C164 123.105 163.105 124 162 124C160.895 124 160 123.105 160 122C160 120.895 160.895 120 162 120ZM182 120C183.105 120 184 120.895 184 122C184 123.105 183.105 124 182 124C180.895 124 180 123.105 180 122C180 120.895 180.895 120 182 120ZM202 120C203.105 120 204 120.895 204 122C204 123.105 203.105 124 202 124C200.895 124 200 123.105 200 122C200 120.895 200.895 120 202 120ZM222 120C223.105 120 224 120.895 224 122C224 123.105 223.105 124 222 124C220.895 124 220 123.105 220 122C220 120.895 220.895 120 222 120ZM242 120C243.105 120 244 120.895 244 122C244 123.105 243.105 124 242 124C240.895 124 240 123.105 240 122C240 120.895 240.895 120 242 120ZM262 120C263.105 120 264 120.895 264 122C264 123.105 263.105 124 262 124C260.895 124 260 123.105 260 122C260 120.895 260.895 120 262 120ZM282 120C283.105 120 284 120.895 284 122C284 123.105 283.105 124 282 124C280.895 124 280 123.105 280 122C280 120.895 280.895 120 282 120ZM2 100C3.10457 100 4 100.895 4 102C4 103.105 3.10457 104 2 104C0.895431 104 0 103.105 0 102C0 100.895 0.895431 100 2 100ZM22 100C23.1046 100 24 100.895 24 102C24 103.105 23.1046 104 22 104C20.8954 104 20 103.105 20 102C20 100.895 20.8954 100 22 100ZM42 100C43.1046 100 44 100.895 44 102C44 103.105 43.1046 104 42 104C40.8954 104 40 103.105 40 102C40 100.895 40.8954 100 42 100ZM62 100C63.1046 100 64 100.895 64 102C64 103.105 63.1046 104 62 104C60.8954 104 60 103.105 60 102C60 100.895 60.8954 100 62 100ZM82 100C83.1046 100 84 100.895 84 102C84 103.105 83.1046 104 82 104C80.8954 104 80 103.105 80 102C80 100.895 80.8954 100 82 100ZM102 100C103.105 100 104 100.895 104 102C104 103.105 103.105 104 102 104C100.895 104 100 103.105 100 102C100 100.895 100.895 100 102 100ZM122 100C123.105 100 124 100.895 124 102C124 103.105 123.105 104 122 104C120.895 104 120 103.105 120 102C120 100.895 120.895 100 122 100ZM142 100C143.105 100 144 100.895 144 102C144 103.105 143.105 104 142 104C140.895 104 140 103.105 140 102C140 100.895 140.895 100 142 100ZM162 100C163.105 100 164 100.895 164 102C164 103.105 163.105 104 162 104C160.895 104 160 103.105 160 102C160 100.895 160.895 100 162 100ZM182 100C183.105 100 184 100.895 184 102C184 103.105 183.105 104 182 104C180.895 104 180 103.105 180 102C180 100.895 180.895 100 182 100ZM202 100C203.105 100 204 100.895 204 102C204 103.105 203.105 104 202 104C200.895 104 200 103.105 200 102C200 100.895 200.895 100 202 100ZM222 100C223.105 100 224 100.895 224 102C224 103.105 223.105 104 222 104C220.895 104 220 103.105 220 102C220 100.895 220.895 100 222 100ZM242 100C243.105 100 244 100.895 244 102C244 103.105 243.105 104 242 104C240.895 104 240 103.105 240 102C240 100.895 240.895 100 242 100ZM262 100C263.105 100 264 100.895 264 102C264 103.105 263.105 104 262 104C260.895 104 260 103.105 260 102C260 100.895 260.895 100 262 100ZM282 100C283.105 100 284 100.895 284 102C284 103.105 283.105 104 282 104C280.895 104 280 103.105 280 102C280 100.895 280.895 100 282 100ZM2 80C3.10457 80 4 80.8954 4 82C4 83.1046 3.10457 84 2 84C0.895431 84 0 83.1046 0 82C0 80.8954 0.895431 80 2 80ZM22 80C23.1046 80 24 80.8954 24 82C24 83.1046 23.1046 84 22 84C20.8954 84 20 83.1046 20 82C20 80.8954 20.8954 80 22 80ZM42 80C43.1046 80 44 80.8954 44 82C44 83.1046 43.1046 84 42 84C40.8954 84 40 83.1046 40 82C40 80.8954 40.8954 80 42 80ZM62 80C63.1046 80 64 80.8954 64 82C64 83.1046 63.1046 84 62 84C60.8954 84 60 83.1046 60 82C60 80.8954 60.8954 80 62 80ZM82 80C83.1046 80 84 80.8954 84 82C84 83.1046 83.1046 84 82 84C80.8954 84 80 83.1046 80 82C80 80.8954 80.8954 80 82 80ZM102 80C103.105 80 104 80.8954 104 82C104 83.1046 103.105 84 102 84C100.895 84 100 83.1046 100 82C100 80.8954 100.895 80 102 80ZM122 80C123.105 80 124 80.8954 124 82C124 83.1046 123.105 84 122 84C120.895 84 120 83.1046 120 82C120 80.8954 120.895 80 122 80ZM142 80C143.105 80 144 80.8954 144 82C144 83.1046 143.105 84 142 84C140.895 84 140 83.1046 140 82C140 80.8954 140.895 80 142 80ZM162 80C163.105 80 164 80.8954 164 82C164 83.1046 163.105 84 162 84C160.895 84 160 83.1046 160 82C160 80.8954 160.895 80 162 80ZM182 80C183.105 80 184 80.8954 184 82C184 83.1046 183.105 84 182 84C180.895 84 180 83.1046 180 82C180 80.8954 180.895 80 182 80ZM202 80C203.105 80 204 80.8954 204 82C204 83.1046 203.105 84 202 84C200.895 84 200 83.1046 200 82C200 80.8954 200.895 80 202 80ZM222 80C223.105 80 224 80.8954 224 82C224 83.1046 223.105 84 222 84C220.895 84 220 83.1046 220 82C220 80.8954 220.895 80 222 80ZM242 80C243.105 80 244 80.8954 244 82C244 83.1046 243.105 84 242 84C240.895 84 240 83.1046 240 82C240 80.8954 240.895 80 242 80ZM262 80C263.105 80 264 80.8954 264 82C264 83.1046 263.105 84 262 84C260.895 84 260 83.1046 260 82C260 80.8954 260.895 80 262 80ZM282 80C283.105 80 284 80.8954 284 82C284 83.1046 283.105 84 282 84C280.895 84 280 83.1046 280 82C280 80.8954 280.895 80 282 80ZM2 60C3.10457 60 4 60.8954 4 62C4 63.1046 3.10457 64 2 64C0.895431 64 0 63.1046 0 62C0 60.8954 0.895431 60 2 60ZM22 60C23.1046 60 24 60.8954 24 62C24 63.1046 23.1046 64 22 64C20.8954 64 20 63.1046 20 62C20 60.8954 20.8954 60 22 60ZM42 60C43.1046 60 44 60.8954 44 62C44 63.1046 43.1046 64 42 64C40.8954 64 40 63.1046 40 62C40 60.8954 40.8954 60 42 60ZM62 60C63.1046 60 64 60.8954 64 62C64 63.1046 63.1046 64 62 64C60.8954 64 60 63.1046 60 62C60 60.8954 60.8954 60 62 60ZM82 60C83.1046 60 84 60.8954 84 62C84 63.1046 83.1046 64 82 64C80.8954 64 80 63.1046 80 62C80 60.8954 80.8954 60 82 60ZM102 60C103.105 60 104 60.8954 104 62C104 63.1046 103.105 64 102 64C100.895 64 100 63.1046 100 62C100 60.8954 100.895 60 102 60ZM122 60C123.105 60 124 60.8954 124 62C124 63.1046 123.105 64 122 64C120.895 64 120 63.1046 120 62C120 60.8954 120.895 60 122 60ZM142 60C143.105 60 144 60.8954 144 62C144 63.1046 143.105 64 142 64C140.895 64 140 63.1046 140 62C140 60.8954 140.895 60 142 60ZM162 60C163.105 60 164 60.8954 164 62C164 63.1046 163.105 64 162 64C160.895 64 160 63.1046 160 62C160 60.8954 160.895 60 162 60ZM182 60C183.105 60 184 60.8954 184 62C184 63.1046 183.105 64 182 64C180.895 64 180 63.1046 180 62C180 60.8954 180.895 60 182 60ZM202 60C203.105 60 204 60.8954 204 62C204 63.1046 203.105 64 202 64C200.895 64 200 63.1046 200 62C200 60.8954 200.895 60 202 60ZM222 60C223.105 60 224 60.8954 224 62C224 63.1046 223.105 64 222 64C220.895 64 220 63.1046 220 62C220 60.8954 220.895 60 222 60ZM242 60C243.105 60 244 60.8954 244 62C244 63.1046 243.105 64 242 64C240.895 64 240 63.1046 240 62C240 60.8954 240.895 60 242 60ZM262 60C263.105 60 264 60.8954 264 62C264 63.1046 263.105 64 262 64C260.895 64 260 63.1046 260 62C260 60.8954 260.895 60 262 60ZM282 60C283.105 60 284 60.8954 284 62C284 63.1046 283.105 64 282 64C280.895 64 280 63.1046 280 62C280 60.8954 280.895 60 282 60ZM2 40C3.10457 40 4 40.8954 4 42C4 43.1046 3.10457 44 2 44C0.895431 44 0 43.1046 0 42C0 40.8954 0.895431 40 2 40ZM22 40C23.1046 40 24 40.8954 24 42C24 43.1046 23.1046 44 22 44C20.8954 44 20 43.1046 20 42C20 40.8954 20.8954 40 22 40ZM42 40C43.1046 40 44 40.8954 44 42C44 43.1046 43.1046 44 42 44C40.8954 44 40 43.1046 40 42C40 40.8954 40.8954 40 42 40ZM62 40C63.1046 40 64 40.8954 64 42C64 43.1046 63.1046 44 62 44C60.8954 44 60 43.1046 60 42C60 40.8954 60.8954 40 62 40ZM82 40C83.1046 40 84 40.8954 84 42C84 43.1046 83.1046 44 82 44C80.8954 44 80 43.1046 80 42C80 40.8954 80.8954 40 82 40ZM102 40C103.105 40 104 40.8954 104 42C104 43.1046 103.105 44 102 44C100.895 44 100 43.1046 100 42C100 40.8954 100.895 40 102 40ZM122 40C123.105 40 124 40.8954 124 42C124 43.1046 123.105 44 122 44C120.895 44 120 43.1046 120 42C120 40.8954 120.895 40 122 40ZM142 40C143.105 40 144 40.8954 144 42C144 43.1046 143.105 44 142 44C140.895 44 140 43.1046 140 42C140 40.8954 140.895 40 142 40ZM162 40C163.105 40 164 40.8954 164 42C164 43.1046 163.105 44 162 44C160.895 44 160 43.1046 160 42C160 40.8954 160.895 40 162 40ZM182 40C183.105 40 184 40.8954 184 42C184 43.1046 183.105 44 182 44C180.895 44 180 43.1046 180 42C180 40.8954 180.895 40 182 40ZM202 40C203.105 40 204 40.8954 204 42C204 43.1046 203.105 44 202 44C200.895 44 200 43.1046 200 42C200 40.8954 200.895 40 202 40ZM222 40C223.105 40 224 40.8954 224 42C224 43.1046 223.105 44 222 44C220.895 44 220 43.1046 220 42C220 40.8954 220.895 40 222 40ZM242 40C243.105 40 244 40.8954 244 42C244 43.1046 243.105 44 242 44C240.895 44 240 43.1046 240 42C240 40.8954 240.895 40 242 40ZM262 40C263.105 40 264 40.8954 264 42C264 43.1046 263.105 44 262 44C260.895 44 260 43.1046 260 42C260 40.8954 260.895 40 262 40ZM282 40C283.105 40 284 40.8954 284 42C284 43.1046 283.105 44 282 44C280.895 44 280 43.1046 280 42C280 40.8954 280.895 40 282 40ZM2 20C3.10457 20 4 20.8954 4 22C4 23.1046 3.10457 24 2 24C0.895431 24 0 23.1046 0 22C0 20.8954 0.895431 20 2 20ZM22 20C23.1046 20 24 20.8954 24 22C24 23.1046 23.1046 24 22 24C20.8954 24 20 23.1046 20 22C20 20.8954 20.8954 20 22 20ZM42 20C43.1046 20 44 20.8954 44 22C44 23.1046 43.1046 24 42 24C40.8954 24 40 23.1046 40 22C40 20.8954 40.8954 20 42 20ZM62 20C63.1046 20 64 20.8954 64 22C64 23.1046 63.1046 24 62 24C60.8954 24 60 23.1046 60 22C60 20.8954 60.8954 20 62 20ZM82 20C83.1046 20 84 20.8954 84 22C84 23.1046 83.1046 24 82 24C80.8954 24 80 23.1046 80 22C80 20.8954 80.8954 20 82 20ZM102 20C103.105 20 104 20.8954 104 22C104 23.1046 103.105 24 102 24C100.895 24 100 23.1046 100 22C100 20.8954 100.895 20 102 20ZM122 20C123.105 20 124 20.8954 124 22C124 23.1046 123.105 24 122 24C120.895 24 120 23.1046 120 22C120 20.8954 120.895 20 122 20ZM142 20C143.105 20 144 20.8954 144 22C144 23.1046 143.105 24 142 24C140.895 24 140 23.1046 140 22C140 20.8954 140.895 20 142 20ZM162 20C163.105 20 164 20.8954 164 22C164 23.1046 163.105 24 162 24C160.895 24 160 23.1046 160 22C160 20.8954 160.895 20 162 20ZM182 20C183.105 20 184 20.8954 184 22C184 23.1046 183.105 24 182 24C180.895 24 180 23.1046 180 22C180 20.8954 180.895 20 182 20ZM202 20C203.105 20 204 20.8954 204 22C204 23.1046 203.105 24 202 24C200.895 24 200 23.1046 200 22C200 20.8954 200.895 20 202 20ZM222 20C223.105 20 224 20.8954 224 22C224 23.1046 223.105 24 222 24C220.895 24 220 23.1046 220 22C220 20.8954 220.895 20 222 20ZM242 20C243.105 20 244 20.8954 244 22C244 23.1046 243.105 24 242 24C240.895 24 240 23.1046 240 22C240 20.8954 240.895 20 242 20ZM262 20C263.105 20 264 20.8954 264 22C264 23.1046 263.105 24 262 24C260.895 24 260 23.1046 260 22C260 20.8954 260.895 20 262 20ZM282 20C283.105 20 284 20.8954 284 22C284 23.1046 283.105 24 282 24C280.895 24 280 23.1046 280 22C280 20.8954 280.895 20 282 20ZM2 0C3.10457 0 4 0.895431 4 2C4 3.10457 3.10457 4 2 4C0.895431 4 0 3.10457 0 2C0 0.895431 0.895431 0 2 0ZM22 0C23.1046 0 24 0.895431 24 2C24 3.10457 23.1046 4 22 4C20.8954 4 20 3.10457 20 2C20 0.895431 20.8954 0 22 0ZM42 0C43.1046 0 44 0.895431 44 2C44 3.10457 43.1046 4 42 4C40.8954 4 40 3.10457 40 2C40 0.895431 40.8954 0 42 0ZM62 0C63.1046 0 64 0.895431 64 2C64 3.10457 63.1046 4 62 4C60.8954 4 60 3.10457 60 2C60 0.895431 60.8954 0 62 0ZM82 0C83.1046 0 84 0.895431 84 2C84 3.10457 83.1046 4 82 4C80.8954 4 80 3.10457 80 2C80 0.895431 80.8954 0 82 0ZM102 0C103.105 0 104 0.895447 104 2C104 3.10455 103.105 4 102 4C100.895 4 100 3.10455 100 2C100 0.895447 100.895 0 102 0ZM122 0C123.105 0 124 0.895447 124 2C124 3.10455 123.105 4 122 4C120.895 4 120 3.10455 120 2C120 0.895447 120.895 0 122 0ZM142 0C143.105 0 144 0.895447 144 2C144 3.10455 143.105 4 142 4C140.895 4 140 3.10455 140 2C140 0.895447 140.895 0 142 0ZM162 0C163.105 0 164 0.895447 164 2C164 3.10455 163.105 4 162 4C160.895 4 160 3.10455 160 2C160 0.895447 160.895 0 162 0ZM182 0C183.105 0 184 0.895447 184 2C184 3.10455 183.105 4 182 4C180.895 4 180 3.10455 180 2C180 0.895447 180.895 0 182 0ZM202 0C203.105 0 204 0.895447 204 2C204 3.10455 203.105 4 202 4C200.895 4 200 3.10455 200 2C200 0.895447 200.895 0 202 0ZM222 0C223.105 0 224 0.895447 224 2C224 3.10455 223.105 4 222 4C220.895 4 220 3.10455 220 2C220 0.895447 220.895 0 222 0ZM242 0C243.105 0 244 0.895447 244 2C244 3.10455 243.105 4 242 4C240.895 4 240 3.10455 240 2C240 0.895447 240.895 0 242 0ZM262 0C263.105 0 264 0.895447 264 2C264 3.10455 263.105 4 262 4C260.895 4 260 3.10455 260 2C260 0.895447 260.895 0 262 0ZM282 0C283.105 0 284 0.895447 284 2C284 3.10455 283.105 4 282 4C280.895 4 280 3.10455 280 2C280 0.895447 280.895 0 282 0Z" fill="white"/>
</svg>
